<svg xmlns="http://www.w3.org/2000/svg" width="44.883" height="46.752" viewBox="0 0 44.883 46.752">
  <g id="bathtube" transform="translate(-10.235 0)">
    <path id="Path_43" data-name="Path 43" d="M120.534,194.271a4.265,4.265,0,0,1,6.4-4.43c.02-.1.043-.2.073-.3a3.5,3.5,0,0,1,6.666-.169,4.262,4.262,0,0,1,6.755,1.58,3.1,3.1,0,0,1,4.253-1.038,3.812,3.812,0,1,1,7.472,1.041s-3.716,5.8-17.412,5.8C122.6,196.756,120.534,194.271,120.534,194.271Z" transform="translate(-100.161 -169.088)" fill="#cbf4ff"/>
    <path id="Path_44" data-name="Path 44" d="M73.983,272.61l-2.421,11.929a7.535,7.535,0,0,1-7.394,6.2H43.158a7.535,7.535,0,0,1-7.394-6.2L33.344,272.61s6.531,4.51,19.68,4.51S73.983,272.61,73.983,272.61Z" transform="translate(-20.999 -247.717)" fill="#fcefde"/>
    <path id="Path_45" data-name="Path 45" d="M335.344,274.52l-2.033,10.019a7.535,7.535,0,0,1-7.394,6.2h4.109a7.535,7.535,0,0,0,7.394-6.2l2.421-11.929A28.017,28.017,0,0,1,335.344,274.52Z" transform="translate(-286.858 -247.717)" fill="#fce4c6"/>
    <path id="Path_46" data-name="Path 46" d="M39.235,245.389c-7.943,0-15.435-1.951-21.1-5.495a1.433,1.433,0,1,1,1.521-2.43c5.4,3.378,12.486,5.067,19.575,5.067s14.178-1.689,19.575-5.067a1.433,1.433,0,1,1,1.521,2.43C54.67,243.438,47.178,245.389,39.235,245.389Z" transform="translate(-6.571 -215.583)" fill="#e7c33c"/>
    <path id="Path_47" data-name="Path 47" d="M133.431,57.34,124.1,59.3a.075.075,0,0,1-.089-.058,3.32,3.32,0,0,1,2.565-3.932l2.985-.628a3.32,3.32,0,0,1,3.932,2.565h0A.075.075,0,0,1,133.431,57.34Z" transform="translate(-103.318 -49.627)" fill="#e7c33c"/>
    <circle id="Ellipse_2" data-name="Ellipse 2" cx="1.624" cy="1.624" r="1.624" transform="translate(12.928 17.117) rotate(-45)" fill="#eed05e"/>
    <path id="Path_48" data-name="Path 48" d="M74.019,438.817l2.027-2.027a1.147,1.147,0,1,1,1.621,1.621l-2.73,2.73a5.212,5.212,0,0,1-3.685,1.526H67.347a1.147,1.147,0,0,1,0-2.293H70.6a4.508,4.508,0,0,0,3.234-1.368Z" transform="translate(-50.855 -396.601)" fill="#e7c33c"/>
    <path id="Path_49" data-name="Path 49" d="M320.264,438.817l-2.027-2.027a1.147,1.147,0,1,0-1.621,1.621l2.73,2.73a5.212,5.212,0,0,0,3.685,1.526h3.905a1.147,1.147,0,0,0,0-2.293h-3.253a4.508,4.508,0,0,1-3.234-1.368Z" transform="translate(-278.1 -396.601)" fill="#e7c33c"/>
    <circle id="Ellipse_3" data-name="Ellipse 3" cx="1.777" cy="1.777" r="1.777" transform="translate(39.913 13.786)" fill="#cbf4ff"/>
    <circle id="Ellipse_4" data-name="Ellipse 4" cx="1.312" cy="1.312" r="1.312" transform="translate(46.2 10.151)" fill="#cbf4ff"/>
    <path id="Path_50" data-name="Path 50" d="M54.8,21.973a2.108,2.108,0,0,0-1.8-.994c-.057,0-.114,0-.171.008a4.5,4.5,0,0,0-8.813-1.435q-.041.14-.072.283a3.8,3.8,0,0,0-3.553.825,4.949,4.949,0,0,0-6.614-1.414,4.182,4.182,0,0,0-7.418.543q-.2-.08-.416-.141A4.953,4.953,0,0,0,19.619,24.2,31.7,31.7,0,0,1,15.96,22.69V19.307a2.289,2.289,0,0,0,.343-.145l.67.67a.685.685,0,0,0,.968-.968l-.67-.67a2.316,2.316,0,0,0,0-2.151l.67-.67a.685.685,0,0,0-.968-.968l-.67.67a2.294,2.294,0,0,0-.39-.16V5.367a4,4,0,0,1,7.961-.51l-.834.176A3.934,3.934,0,0,0,20,9.687a.721.721,0,0,0,.842.676l5.111-1.076a.685.685,0,0,0-.282-1.34l-4.386.923a2.564,2.564,0,0,1,2.033-2.5l3.132-.659A2.562,2.562,0,0,1,29.32,7.179l-.267.056a.685.685,0,0,0,.282,1.34l.992-.209a.73.73,0,0,0,.5-.958,3.934,3.934,0,0,0-4.654-3.036l-.953.2a5.367,5.367,0,0,0-10.675.793v9.547a2.3,2.3,0,0,0-.391.161l-.67-.67a.685.685,0,0,0-.968.968l.67.67a2.319,2.319,0,0,0,0,2.15l-.67.67c-.613.613.341,1.6.968.968l.67-.67a2.3,2.3,0,0,0,.438.175v2.636q-.581-.325-1.138-.671C11.127,19.847,8.9,23.45,11.2,24.892c.166.1.334.206.5.307l2.386,11.759a8.355,8.355,0,0,0,4.945,6.131H16.492a1.832,1.832,0,0,0,0,3.663H20.4a5.858,5.858,0,0,0,4.17-1.727L25.992,43.6c.106.067,13.452.107,13.452.107l1.318,1.318a5.857,5.857,0,0,0,4.169,1.727.685.685,0,0,0,0-1.37,4.5,4.5,0,0,1-3.2-1.326L39,41.327c-.408-.408.226-1.08.653-.653l2.2,2.21a5.222,5.222,0,0,0,3.726,1.575h3.253a.462.462,0,0,1,0,.923.685.685,0,0,0,0,1.37,1.831,1.831,0,0,0,0-3.663H46.289a8.355,8.355,0,0,0,4.945-6.131L53.62,25.2q.254-.152.5-.308A2.12,2.12,0,0,0,54.8,21.973ZM14.563,17.782a.939.939,0,1,1,1.329,0,.94.94,0,0,1-1.329,0Zm6.564,5.62a3.58,3.58,0,0,1,5.293-2.063.685.685,0,0,0,1.027-.454c.017-.089.037-.169.058-.243a2.813,2.813,0,0,1,5.361-.136.685.685,0,0,0,1.1.29,3.577,3.577,0,0,1,5.671,1.326.685.685,0,0,0,1.218.1,2.42,2.42,0,0,1,3.315-.808.685.685,0,0,0,1.039-.59,3.127,3.127,0,1,1,6.144.8,37.051,37.051,0,0,1-18.686,4.643,41.244,41.244,0,0,1-11.672-1.63A3.549,3.549,0,0,1,21.127,23.4ZM23.6,44.056a4.5,4.5,0,0,1-3.2,1.326H16.491a.462.462,0,0,1,0-.923h3.253a5.221,5.221,0,0,0,3.726-1.575l2.2-2.21a.462.462,0,0,1,.653.653ZM53.4,23.731c-5.554,3.476-12.917,5.391-20.733,5.391a44.106,44.106,0,0,1-12.229-1.67.685.685,0,0,0-.38,1.316,45.478,45.478,0,0,0,12.608,1.724,42.272,42.272,0,0,0,19.379-4.41l-2.152,10.6A6.879,6.879,0,0,1,43.3,42.334c-.165-.122-2.683-2.629-2.683-2.629-1.692-1.692-4.286.98-2.548,2.632H27.255c1.716-1.669-.851-4.328-2.548-2.632,0,0-2.518,2.507-2.683,2.629a6.879,6.879,0,0,1-6.587-5.648L13.284,26.08a34.316,34.316,0,0,0,3.146,1.446.685.685,0,0,0,.509-1.272,31.558,31.558,0,0,1-5.008-2.523.749.749,0,0,1,.794-1.269c5.894,3.689,13.05,5.171,19.939,5.171,7.53,0,14.611-1.837,19.939-5.171A.749.749,0,0,1,53.4,23.731Z"/>
    <path id="Path_51" data-name="Path 51" d="M330.217,148.4a2.461,2.461,0,1,0-2.461-2.461A2.464,2.464,0,0,0,330.217,148.4Zm0-3.553a1.092,1.092,0,1,1-1.092,1.092A1.093,1.093,0,0,1,330.217,144.85Z" transform="translate(-288.528 -130.379)"/>
    <path id="Path_52" data-name="Path 52" d="M398.6,107.664a2,2,0,1,0-2-2A2,2,0,0,0,398.6,107.664Zm0-2.624a.627.627,0,1,1-.627.627A.628.628,0,0,1,398.6,105.041Z" transform="translate(-351.087 -94.205)"/>
    <path id="Path_53" data-name="Path 53" d="M144.486,240.941a2.74,2.74,0,0,0-4.052,1.58.685.685,0,1,0,1.315.382,1.371,1.371,0,0,1,2.028-.79.685.685,0,1,0,.709-1.172Z" transform="translate(-118.285 -218.578)"/>
    <path id="Path_54" data-name="Path 54" d="M283.758,232.915a.538.538,0,0,1,.781.343.685.685,0,1,0,1.33-.327,1.907,1.907,0,0,0-2.772-1.216.685.685,0,0,0,.66,1.2Z" transform="translate(-247.625 -210.342)"/>
  </g>
</svg>
