<svg xmlns="http://www.w3.org/2000/svg" width="51" height="42.5" viewBox="0 0 51 42.5">
  <g id="bed" transform="translate(-2 -7)">
    <path id="Path_5" data-name="Path 5" d="M6,16H50.2V38.95H6Z" transform="translate(-0.6 -1.35)" fill="#ed539d"/>
    <g id="Group_1" data-name="Group 1" transform="translate(4.55 7.85)">
      <path id="Path_6" data-name="Path 6" d="M57.1,10.55V14.8H52V10.55a2.55,2.55,0,0,1,5.1,0Z" transform="translate(-12.05 -8)" fill="#b39a7c"/>
      <path id="Path_7" data-name="Path 7" d="M11.1,10.55V14.8H6V10.55a2.55,2.55,0,1,1,5.1,0Z" transform="translate(-5.15 -8)" fill="#b39a7c"/>
      <path id="Path_8" data-name="Path 8" d="M58.25,50v5.1H55.7L54,50Z" transform="translate(-12.35 -14.3)" fill="#b39a7c"/>
      <path id="Path_9" data-name="Path 9" d="M9.25,50l-1.7,5.1H5V50Z" transform="translate(-5 -14.3)" fill="#b39a7c"/>
    </g>
    <path id="Path_10" data-name="Path 10" d="M3,42H52.3v6.8H3Z" transform="translate(-0.15 -5.25)" fill="#ffda44"/>
    <path id="Path_11" data-name="Path 11" d="M49.3,25.7v5.1H34V25.7A1.705,1.705,0,0,1,35.7,24H47.6a1.705,1.705,0,0,1,1.7,1.7Z" transform="translate(-4.8 -2.55)" fill="#d8d7da"/>
    <path id="Path_12" data-name="Path 12" d="M27.3,25.7v5.1H12V25.7A1.705,1.705,0,0,1,13.7,24H25.6a1.705,1.705,0,0,1,1.7,1.7Z" transform="translate(-1.5 -2.55)" fill="#d8d7da"/>
    <path id="Path_13" data-name="Path 13" d="M50.9,37.1v3.4H5V37.1a5.015,5.015,0,0,1,.85-2.813A5.086,5.086,0,0,1,10.1,32H45.8a5.086,5.086,0,0,1,4.25,2.286A5.015,5.015,0,0,1,50.9,37.1Z" transform="translate(-0.45 -3.75)" fill="#5aaae7"/>
    <path id="Path_14" data-name="Path 14" d="M52.15,35.9H51.3V33.35a5.922,5.922,0,0,0-.85-3.052V10.4a3.4,3.4,0,1,0-6.8,0v3.4H11.35V10.4a3.4,3.4,0,1,0-6.8,0V30.3A5.922,5.922,0,0,0,3.7,33.35V35.9H2.85a.85.85,0,0,0-.85.85v6.8a.85.85,0,0,0,.85.85H3.7v4.25a.85.85,0,0,0,.85.85H7.1a.862.862,0,0,0,.807-.578l1.5-4.522H45.588l1.5,4.522a.862.862,0,0,0,.808.578h2.55a.85.85,0,0,0,.85-.85V44.4h.85a.85.85,0,0,0,.85-.85v-6.8A.85.85,0,0,0,52.15,35.9Zm-6.8-25.5a1.7,1.7,0,1,1,3.4,0v3.4h-3.4Zm-39.1,0a1.7,1.7,0,1,1,3.4,0v3.4H6.25Zm0,5.1h42.5V28.471a5.939,5.939,0,0,0-3.4-1.071V23.15A2.558,2.558,0,0,0,42.8,20.6H30.9a2.558,2.558,0,0,0-2.55,2.55V27.4h-1.7V23.15A2.558,2.558,0,0,0,24.1,20.6H12.2a2.558,2.558,0,0,0-2.55,2.55V27.4a5.939,5.939,0,0,0-3.4,1.071Zm37.4,7.65V27.4H30.05V23.15a.85.85,0,0,1,.85-.85H42.8A.85.85,0,0,1,43.65,23.15Zm-18.7,0V27.4H11.35V23.15a.85.85,0,0,1,.85-.85H24.1A.85.85,0,0,1,24.95,23.15ZM5.4,33.35A4.25,4.25,0,0,1,9.65,29.1h35.7a4.25,4.25,0,0,1,4.25,4.25V35.9H5.4ZM6.488,47.8H5.4V44.4H7.619Zm43.112,0H48.512l-1.131-3.4H49.6Zm1.7-5.1H3.7V37.6H51.3Z"/>
  </g>
</svg>
