<svg xmlns="http://www.w3.org/2000/svg" width="18.852" height="27" viewBox="0 0 18.852 27">
  <g id="bulb" transform="translate(-91 -760)">
    <path id="Icon_material-lightbulb-outline" data-name="Icon material-lightbulb-outline" d="M12.886,28.585a1.351,1.351,0,0,0,1.347,1.347h5.386a1.351,1.351,0,0,0,1.347-1.347V27.239h-8.08ZM16.926,3A9.422,9.422,0,0,0,11.54,20.156V23.2a1.351,1.351,0,0,0,1.347,1.347h8.08A1.351,1.351,0,0,0,22.313,23.2V20.156A9.422,9.422,0,0,0,16.926,3Zm3.838,14.947-1.145.808v3.1H14.233v-3.1l-1.145-.808a6.733,6.733,0,1,1,7.676,0Z" transform="translate(83.5 757)" fill="#578cd0"/>
    <path id="Rectangle_3" data-name="Rectangle 3" d="M0,0H9A0,0,0,0,1,9,0V2A1,1,0,0,1,8,3H1A1,1,0,0,1,0,2V0A0,0,0,0,1,0,0Z" transform="translate(96 784)" fill="#002d67"/>
  </g>
</svg>
