<svg height="20.323" viewBox="0 0 20.323 20.323" width="20.323" xmlns="http://www.w3.org/2000/svg"><path d="m19.476 7.621h-11.855v-.847h3.387a.847.847 0 0 0 .847-.847v-5.08a.847.847 0 0 0 -.847-.847h-8.468a.847.847 0 0 0 -.847.847v5.08a.847.847 0 0 0 .847.847h3.387v.847h-5.08a.847.847 0 0 0 -.847.847v11.855h1.694v-8.468h10.161v5.927a.847.847 0 0 0 .847.847h5.927v1.694h1.694v-11.855a.847.847 0 0 0 -.847-.847zm-16.089-5.927h6.774v3.387h-6.774zm-1.693 7.621h16.935v.847h-16.935zm16.936 2.54v1.694h-5.082v-1.694zm-5.081 5.081v-1.694h5.081v1.694z" fill="#fff"/></svg>