<svg xmlns="http://www.w3.org/2000/svg" width="20.323" height="20.323" viewBox="0 0 20.323 20.323">
  <path id="furniture-and-household" d="M19.476,7.621H7.621V6.774h3.387a.847.847,0,0,0,.847-.847V.847A.847.847,0,0,0,11.008,0H2.54a.847.847,0,0,0-.847.847V5.927a.847.847,0,0,0,.847.847H5.927v.847H.847A.847.847,0,0,0,0,8.468V20.323H1.694V11.855H11.855v5.927a.847.847,0,0,0,.847.847h5.927v1.694h1.694V8.468A.847.847,0,0,0,19.476,7.621ZM3.387,1.694h6.774V5.081H3.387ZM1.694,9.315H18.629v.847H1.694Zm16.936,2.54v1.694H13.548V11.855Zm-5.081,5.081V15.242h5.081v1.694Z" fill="#fff"/>
</svg>
