<svg xmlns="http://www.w3.org/2000/svg" width="17.536" height="17.819" viewBox="0 0 17.536 17.819">
  <path id="Icon_awesome-power-off" data-name="Icon awesome-power-off" d="M14.421,1.913a8.767,8.767,0,1,1-10.189,0,.851.851,0,0,1,1.237.272l.559.993a.848.848,0,0,1-.233,1.1,5.939,5.939,0,1,0,7.067,0,.843.843,0,0,1-.23-1.092l.559-.993a.847.847,0,0,1,1.23-.276ZM10.745,9.334V.849A.846.846,0,0,0,9.9,0H8.765a.846.846,0,0,0-.849.849V9.334a.846.846,0,0,0,.849.849H9.9A.846.846,0,0,0,10.745,9.334Z" transform="translate(-0.563)" fill="#ff9696"/>
</svg>
