<svg xmlns="http://www.w3.org/2000/svg" width="27.492" height="27.492" viewBox="0 0 27.492 27.492">
  <g id="Icon_feather-settings" data-name="Icon feather-settings" transform="translate(1.25 1.25)">
    <path id="Path_1" data-name="Path 1" d="M20.316,16.908A3.408,3.408,0,1,1,16.908,13.5,3.408,3.408,0,0,1,20.316,16.908Z" transform="translate(-4.412 -4.412)" fill="none" stroke="#002d67" stroke-linecap="round" stroke-linejoin="round" stroke-width="2.5"/>
    <path id="Path_2" data-name="Path 2" d="M22.4,17.4a1.874,1.874,0,0,0,.375,2.068l.068.068a2.273,2.273,0,1,1-3.215,3.215l-.068-.068a1.89,1.89,0,0,0-3.2,1.34v.193a2.272,2.272,0,0,1-4.544,0v-.1A1.874,1.874,0,0,0,10.588,22.4a1.874,1.874,0,0,0-2.068.375l-.068.068A2.273,2.273,0,1,1,5.237,19.63l.068-.068a1.89,1.89,0,0,0-1.34-3.2H3.772a2.272,2.272,0,0,1,0-4.544h.1A1.874,1.874,0,0,0,5.59,10.588,1.874,1.874,0,0,0,5.215,8.52l-.068-.068A2.273,2.273,0,1,1,8.361,5.237l.068.068A1.874,1.874,0,0,0,10.5,5.68h.091a1.874,1.874,0,0,0,1.136-1.715V3.772a2.272,2.272,0,0,1,4.544,0v.1a1.89,1.89,0,0,0,3.2,1.34l.068-.068a2.273,2.273,0,1,1,3.215,3.215l-.068.068a1.874,1.874,0,0,0-.375,2.068v.091a1.874,1.874,0,0,0,1.715,1.136h.193a2.272,2.272,0,0,1,0,4.544h-.1A1.874,1.874,0,0,0,22.4,17.4Z" transform="translate(-1.5 -1.5)" fill="none" stroke="#588dd0" stroke-linecap="round" stroke-linejoin="round" stroke-width="2.5"/>
  </g>
</svg>
