<svg xmlns="http://www.w3.org/2000/svg" width="14.062" height="13.264" viewBox="0 0 14.062 13.264">
  <path id="Icon_ionic-md-arrow-round-back" data-name="Icon ionic-md-arrow-round-back" d="M18.468,11.683H9.917l3.317-3.173a1.322,1.322,0,0,0,0-1.806,1.182,1.182,0,0,0-1.726,0L5.985,12.059a1.217,1.217,0,0,0-.36.9v.016a1.217,1.217,0,0,0,.36.9L11.5,19.22a1.182,1.182,0,0,0,1.726,0,1.322,1.322,0,0,0,0-1.806L9.913,14.241h8.551a1.251,1.251,0,0,0,1.223-1.279A1.238,1.238,0,0,0,18.468,11.683Z" transform="translate(-5.625 -6.33)" fill="#fff"/>
</svg>
