<svg xmlns="http://www.w3.org/2000/svg" width="45.306" height="45.306" viewBox="0 0 45.306 45.306">
  <g id="kitchen" transform="translate(-24 -24)">
    <path id="Path_55" data-name="Path 55" d="M136,272h23.434v6.249H136Z" transform="translate(-101.064 -223.785)" fill="#4d6378"/>
    <path id="Path_56" data-name="Path 56" d="M152.4,278.249V272H143.03v6.249H136V288.4h23.434V278.249Z" transform="translate(-101.064 -223.785)" fill="#42566b"/>
    <path id="Path_57" data-name="Path 57" d="M0,0H10.936V21.091H0Z" transform="translate(69.306 69.306) rotate(180)" fill="#f6bb00"/>
    <path id="Path_58" data-name="Path 58" d="M24,24H34.936V41.966H24Z" transform="translate(0 0)" fill="#f6bb00"/>
    <path id="Path_59" data-name="Path 59" d="M24,272H34.936v21.091H24Z" transform="translate(0 -223.785)" fill="#f6bb00"/>
    <path id="Path_60" data-name="Path 60" d="M448,296h1.562v3.125H448Z" transform="translate(-382.6 -245.441)" fill="#eda600"/>
    <path id="Path_61" data-name="Path 61" d="M0,0H10.936V17.966H0Z" transform="translate(69.306 41.966) rotate(180)" fill="#f6bb00"/>
    <path id="Path_62" data-name="Path 62" d="M168,176h17.185v3.125H168Z" transform="translate(-129.94 -137.158)" fill="#42566b"/>
    <path id="Path_63" data-name="Path 63" d="M185.185,147.125,182.06,144H171.125L168,147.125Z" transform="translate(-129.94 -108.283)" fill="#4d6378"/>
    <path id="Path_64" data-name="Path 64" d="M232,296h4.687v1.562H232Z" transform="translate(-187.69 -245.441)" fill="#02c26a"/>
    <g id="Group_12" data-name="Group 12" transform="translate(36.27 50.428)">
      <circle id="Ellipse_5" data-name="Ellipse 5" cx="1" cy="1" r="1" transform="translate(-0.27 -0.428)" fill="#42566b"/>
      <ellipse id="Ellipse_6" data-name="Ellipse 6" cx="0.5" cy="1" rx="0.5" ry="1" transform="translate(2.73 -0.428)" fill="#42566b"/>
      <ellipse id="Ellipse_7" data-name="Ellipse 7" cx="0.5" cy="1" rx="0.5" ry="1" transform="translate(16.73 -0.428)" fill="#42566b"/>
      <circle id="Ellipse_8" data-name="Ellipse 8" cx="1" cy="1" r="1" transform="translate(18.73 -0.428)" fill="#42566b"/>
    </g>
    <path id="Path_65" data-name="Path 65" d="M168,368h17.185v3.906H168Z" transform="translate(-129.94 -310.411)" fill="#84d8e8"/>
    <path id="Path_66" data-name="Path 66" d="M136,440h23.434v4.687H136Z" transform="translate(-101.064 -375.381)" fill="#eda600"/>
    <path id="Path_67" data-name="Path 67" d="M136,24h11.717V35.717H136Z" transform="translate(-101.064 0)" fill="#eda600"/>
    <path id="Path_68" data-name="Path 68" d="M216,88h1.562v3.125H216Z" transform="translate(-173.253 -57.751)" fill="#cf8300"/>
    <path id="Path_69" data-name="Path 69" d="M48,152h1.562v3.125H48Z" transform="translate(-21.657 -115.502)" fill="#eda600"/>
    <path id="Path_70" data-name="Path 70" d="M48,296h1.562v3.125H48Z" transform="translate(-21.657 -245.441)" fill="#eda600"/>
    <path id="Path_71" data-name="Path 71" d="M0,0H11.717V11.717H0Z" transform="translate(58.37 35.717) rotate(180)" fill="#de9400"/>
    <path id="Path_72" data-name="Path 72" d="M280,88h1.562v3.125H280Z" transform="translate(-231.004 -57.751)" fill="#cf8300"/>
    <path id="Path_73" data-name="Path 73" d="M448,152h1.562v3.125H448Z" transform="translate(-382.6 -115.502)" fill="#eda600"/>
  </g>
</svg>
