<svg xmlns="http://www.w3.org/2000/svg" width="56" height="44.333" viewBox="0 0 56 44.333">
  <g id="room" transform="translate(0 -53.336)">
    <path id="Path_15" data-name="Path 15" d="M431.458,344.025V342.2a.582.582,0,0,0-.58-.58h-7.339a.582.582,0,0,0-.58.58v1.829Z" transform="translate(-376.697 -256.749)" fill="#9ce8ff"/>
    <g id="Group_8" data-name="Group 8" transform="translate(45.021 94.315)">
      <path id="Path_16" data-name="Path 16" d="M411.625,428v2.766a.582.582,0,0,0,.58.58h1.045a.582.582,0,0,0,.58-.58V428Z" transform="translate(-411.625 -428)" fill="#ffaf68"/>
      <path id="Path_17" data-name="Path 17" d="M491.834,430.766a.582.582,0,0,0,.58.58h1.045a.582.582,0,0,0,.58-.58V428h-2.206v2.766Z" transform="translate(-483.061 -428)" fill="#ffaf68"/>
    </g>
    <rect id="Rectangle_4" data-name="Rectangle 4" width="10.978" height="2.833" transform="translate(45.021 91.839)" fill="#cb7c52"/>
    <path id="Path_18" data-name="Path 18" d="M422.012,360.389h-9.8a.592.592,0,0,0-.59.591v4.7H422.6v-4.7A.592.592,0,0,0,422.012,360.389Z" transform="translate(-366.603 -273.469)" fill="#ab5436"/>
    <path id="Path_19" data-name="Path 19" d="M446.923,382.119H444.68a.845.845,0,1,1,0-1.69h2.243a.845.845,0,0,1,0,1.69Z" transform="translate(-395.291 -291.317)" fill="#cb7c52"/>
    <path id="Path_20" data-name="Path 20" d="M36,238.4v-23.66a.82.82,0,1,0-1.641,0V238.4Z" transform="translate(-30.603 -143.017)" fill="#08375e"/>
    <path id="Path_21" data-name="Path 21" d="M15.413,434.4h-7a.565.565,0,0,0-.563.563v1.528a.565.565,0,0,0,.563.563h7Z" transform="translate(-6.991 -339.383)" fill="#63c3ea"/>
    <g id="Group_9" data-name="Group 9" transform="translate(0.859 95.015)" opacity="0.1">
      <path id="Path_22" data-name="Path 22" d="M10.315,436.49v-1.528a.565.565,0,0,1,.563-.563H8.413a.565.565,0,0,0-.563.563v1.528a.565.565,0,0,0,.563.563h2.465A.565.565,0,0,1,10.315,436.49Z" transform="translate(-7.85 -434.399)" fill="#231f20"/>
    </g>
    <path id="Path_23" data-name="Path 23" d="M9.157,142.224a.565.565,0,0,1-.563.563H.563A.565.565,0,0,1,0,142.224V132a.565.565,0,0,1,.563-.563h8.03a.565.565,0,0,1,.563.563v10.227Z" transform="translate(0 -69.555)" fill="#ff9f3d"/>
    <path id="Path_24" data-name="Path 24" d="M2.422,142.224V132a.565.565,0,0,1,.563-.563H.563A.565.565,0,0,0,0,132v10.227a.565.565,0,0,0,.563.563H2.986A.565.565,0,0,1,2.422,142.224Z" transform="translate(0 -69.555)" fill="#231f20" opacity="0.1"/>
    <path id="Path_25" data-name="Path 25" d="M135.233,268.475H108.146a1.13,1.13,0,0,0-1.127,1.127V281H136.36V269.6A1.13,1.13,0,0,0,135.233,268.475Z" transform="translate(-95.314 -191.608)" fill="#ffbb4a"/>
    <path id="Path_26" data-name="Path 26" d="M110.112,268.475h-1.967a1.13,1.13,0,0,0-1.127,1.127V281h1.967V269.6A1.13,1.13,0,0,1,110.112,268.475Z" transform="translate(-95.314 -191.608)" fill="#231f20" opacity="0.1"/>
    <rect id="Rectangle_5" data-name="Rectangle 5" width="1.641" height="12.526" transform="translate(25.555 76.867)" fill="#ff9f3d"/>
    <g id="Group_10" data-name="Group 10" transform="translate(16.175 83.2)">
      <path id="Path_27" data-name="Path 27" d="M154.078,332a.565.565,0,0,1-.563.563h-5.062a.565.565,0,0,1-.563-.563v-5.066a.565.565,0,0,1,.563-.563h5.062a.565.565,0,0,1,.563.563Z" transform="translate(-147.889 -326.375)" fill="#3eaf91"/>
      <path id="Path_28" data-name="Path 28" d="M288.207,332a.565.565,0,0,1-.563.563h-5.062a.565.565,0,0,1-.563-.563v-5.066a.565.565,0,0,1,.563-.563h5.062a.565.565,0,0,1,.563.563Z" transform="translate(-267.348 -326.375)" fill="#3eaf91"/>
    </g>
    <rect id="Rectangle_6" data-name="Rectangle 6" width="29.341" height="5.797" transform="translate(11.705 88.976)" fill="#ff9f3d"/>
    <path id="Path_29" data-name="Path 29" d="M74.239,340.463H71.488a1.15,1.15,0,0,0-1.146,1.147v11.2a.575.575,0,0,0,.573.574h3.9a.575.575,0,0,0,.573-.574v-11.2A1.15,1.15,0,0,0,74.239,340.463Z" transform="translate(-62.648 -255.723)" fill="#fcc96c"/>
    <path id="Path_30" data-name="Path 30" d="M72.76,352.811v-11.2a1.15,1.15,0,0,1,1.146-1.147H71.488a1.15,1.15,0,0,0-1.146,1.147v11.2a.575.575,0,0,0,.573.574h2.418A.575.575,0,0,1,72.76,352.811Z" transform="translate(-62.648 -255.723)" fill="#231f20" opacity="0.1"/>
    <path id="Path_31" data-name="Path 31" d="M369.747,340.463H367a1.15,1.15,0,0,0-1.146,1.147v11.2a.575.575,0,0,0,.573.574h3.9a.575.575,0,0,0,.573-.574v-11.2A1.15,1.15,0,0,0,369.747,340.463Z" transform="translate(-325.835 -255.723)" fill="#fcc96c"/>
    <path id="Path_32" data-name="Path 32" d="M367.7,352.811v-11.2a1.15,1.15,0,0,1,1.146-1.147H367a1.15,1.15,0,0,0-1.146,1.147v11.2a.575.575,0,0,0,.573.574h1.844A.575.575,0,0,1,367.7,352.811Z" transform="translate(-325.836 -255.723)" fill="#231f20" opacity="0.1"/>
    <path id="Path_33" data-name="Path 33" d="M145.847,77.074H120.523a.6.6,0,0,0-.6.6V91.657a.6.6,0,0,0,.6.6h25.323a.6.6,0,0,0,.6-.6V77.672A.6.6,0,0,0,145.847,77.074Z" transform="translate(-106.809 -21.142)" fill="#ab5436"/>
    <path id="Path_34" data-name="Path 34" d="M142.1,109.331a.329.329,0,0,1-.328-.328V99.26a.329.329,0,0,1,.328-.328H163.18a.329.329,0,0,1,.328.328V109a.329.329,0,0,1-.328.328Z" transform="translate(-126.262 -40.609)" fill="#b1e8ff"/>
    <g id="Group_11" data-name="Group 11" transform="translate(5.515 53.336)">
      <path id="Path_35" data-name="Path 35" d="M391.692,222.25a.3.3,0,0,1-.286-.213c-.47-1.526-.793-1.853-2.3-2.328a.3.3,0,0,1,0-.58c1.509-.475,1.832-.8,2.3-2.328a.3.3,0,0,1,.573,0c.47,1.527.792,1.853,2.3,2.328a.3.3,0,0,1,0,.58c-1.509.475-1.831.8-2.3,2.328A.3.3,0,0,1,391.692,222.25Z" transform="translate(-351.873 -198.731)" fill="#ffbb4a"/>
      <path id="Path_36" data-name="Path 36" d="M427,107.066a.331.331,0,0,1-.317-.236c-.52-1.69-.878-2.052-2.549-2.579a.337.337,0,0,1,0-.642c1.671-.526,2.029-.888,2.549-2.579a.331.331,0,0,1,.634,0c.521,1.691.878,2.053,2.549,2.579a.337.337,0,0,1,0,.642c-1.671.527-2.028.888-2.549,2.579A.332.332,0,0,1,427,107.066Z" transform="translate(-383.055 -95.604)" fill="#ffbb4a"/>
      <path id="Path_37" data-name="Path 37" d="M52.739,58.022a.248.248,0,0,1-.237-.176c-.389-1.263-.656-1.534-1.9-1.927a.252.252,0,0,1,0-.479c1.249-.393,1.516-.663,1.9-1.927a.248.248,0,0,1,.474,0c.389,1.264.656,1.534,1.9,1.927a.252.252,0,0,1,0,.479c-1.249.394-1.515.664-1.9,1.927A.249.249,0,0,1,52.739,58.022Z" transform="translate(-50.423 -53.336)" fill="#ffbb4a"/>
    </g>
    <path id="Path_38" data-name="Path 38" d="M272.682,143.433l-3.545,5.422h7.481l-3.545-5.422A.216.216,0,0,0,272.682,143.433Z" transform="translate(-239.7 -80.134)" fill="#86d5b5"/>
    <path id="Path_39" data-name="Path 39" d="M195.948,119.123l-5.284,8.081h10.958l-5.284-8.081A.216.216,0,0,0,195.948,119.123Z" transform="translate(-169.81 -58.482)" fill="#3eaf91"/>
    <path id="Path_40" data-name="Path 40" d="M148.392,142.328l-3.625,5.543h7.639l-3.624-5.543A.216.216,0,0,0,148.392,142.328Z" transform="translate(-128.933 -79.149)" fill="#86d5b5"/>
    <path id="Path_41" data-name="Path 41" d="M142.1,98.932a.329.329,0,0,0-.328.328V109a.329.329,0,0,0,.328.328h1.575v-10.4Z" transform="translate(-126.262 -40.609)" fill="#231f20" opacity="0.1"/>
    <path id="Path_42" data-name="Path 42" d="M431.458,320.9a.582.582,0,0,1-.58.58h-7.339a.582.582,0,0,1-.58-.58v-1.32a.582.582,0,0,1,.58-.58h7.339a.582.582,0,0,1,.58.58Z" transform="translate(-376.697 -236.607)" fill="#63c3ea"/>
  </g>
</svg>
