<svg xmlns="http://www.w3.org/2000/svg" width="17.287" height="28.179" viewBox="0 0 17.287 28.179">
  <g id="solution" transform="translate(-98.948)">
    <g id="Group_24" data-name="Group 24" transform="translate(98.948 4.851)">
      <g id="Group_23" data-name="Group 23">
        <path id="Path_110" data-name="Path 110" d="M116.235,96.78a8.644,8.644,0,1,0-13.362,7.243v2.723a4.718,4.718,0,0,0,9.436,0v-2.723A8.674,8.674,0,0,0,116.235,96.78Zm-5.592,9.966a3.052,3.052,0,0,1-6.1,0v-.7h6.1Zm.418-3.912a.833.833,0,0,0-.418.722v.826h-2.219v-4.308a2.7,2.7,0,0,0,1.866-2.567.833.833,0,1,0-1.666,0,1.033,1.033,0,1,1-2.066,0,.833.833,0,1,0-1.666,0,2.7,2.7,0,0,0,1.866,2.567v4.308H104.54v-.827a.833.833,0,0,0-.418-.722,6.978,6.978,0,1,1,6.94,0Z" transform="translate(-98.948 -88.136)" fill="#ffd239"/>
      </g>
    </g>
    <g id="Group_26" data-name="Group 26" transform="translate(106.758)">
      <g id="Group_25" data-name="Group 25">
        <path id="Path_111" data-name="Path 111" d="M241.694,0a.833.833,0,0,0-.833.833V2.3a.833.833,0,0,0,1.666,0V.833A.833.833,0,0,0,241.694,0Z" transform="translate(-240.861)" fill="#ffd239"/>
      </g>
    </g>
    <g id="Group_28" data-name="Group 28" transform="translate(103.118 0.602)">
      <g id="Group_27" data-name="Group 27">
        <path id="Path_112" data-name="Path 112" d="M176.849,12.854l-.517-1.368a.833.833,0,0,0-1.559.589l.517,1.368a.833.833,0,0,0,1.559-.589Z" transform="translate(-174.719 -10.947)" fill="#ffd239"/>
      </g>
    </g>
    <g id="Group_30" data-name="Group 30" transform="translate(109.881 0.602)">
      <g id="Group_29" data-name="Group 29">
        <path id="Path_113" data-name="Path 113" d="M299.245,11a.833.833,0,0,0-1.074.485l-.517,1.368a.833.833,0,1,0,1.559.589l.517-1.368A.833.833,0,0,0,299.245,11Z" transform="translate(-297.6 -10.946)" fill="#ffd239"/>
      </g>
    </g>
  </g>
</svg>
