<svg id="surface1" xmlns="http://www.w3.org/2000/svg" width="20.425" height="20.425" viewBox="0 0 20.425 20.425">
  <path id="Path_101" data-name="Path 101" d="M102.765,0a6.367,6.367,0,0,0-3.8,11.474v.532a1.876,1.876,0,0,0-.134,2.694,1.879,1.879,0,0,0,.818,3.078,3.162,3.162,0,0,0,6.239,0A1.879,1.879,0,0,0,106.7,14.7a1.876,1.876,0,0,0-.134-2.694v-.532A6.367,6.367,0,0,0,102.765,0Zm2.564,12.734a.684.684,0,0,1,0,1.367H100.2a.684.684,0,1,1,0-1.367Zm-2.564,6.495a1.969,1.969,0,0,1-1.872-1.367h3.745A1.969,1.969,0,0,1,102.765,19.229Zm2.564-2.564H100.2a.683.683,0,1,1,0-1.367h5.128a.683.683,0,0,1,0,1.367Zm.308-6a.6.6,0,0,0-.266.5v.374h-.726V9.179l.859-.859a.6.6,0,1,0-.846-.846l-1.035,1.035a.6.6,0,0,0-.175.423v2.606h-1.367V8.931a.6.6,0,0,0-.175-.423l-1.035-1.035a.6.6,0,1,0-.846.846l.859.859v2.359h-.726v-.374a.6.6,0,0,0-.266-.5,5.17,5.17,0,1,1,5.744,0Zm0,0" transform="translate(-92.553 0)" fill="#002d67"/>
  <path id="Path_102" data-name="Path 102" d="M2.479,145.2a.6.6,0,0,0-.6-.6H.6a.6.6,0,1,0,0,1.2H1.88A.6.6,0,0,0,2.479,145.2Zm0,0" transform="translate(0 -138.833)" fill="#002d67"/>
  <path id="Path_103" data-name="Path 103" d="M451.747,144.6h-1.282a.6.6,0,1,0,0,1.2h1.282a.6.6,0,1,0,0-1.2Zm0,0" transform="translate(-431.921 -138.833)" fill="#002d67"/>
  <path id="Path_104" data-name="Path 104" d="M33.695,249.112l-1.11.641a.6.6,0,1,0,.6,1.036l1.11-.641a.6.6,0,1,0-.6-1.037Zm0,0" transform="translate(-30.997 -239.097)" fill="#002d67"/>
  <path id="Path_105" data-name="Path 105" d="M422.48,25.937a.6.6,0,0,0,.3-.08l1.11-.641a.6.6,0,1,0-.6-1.036l-1.11.641a.6.6,0,0,0,.3,1.117Zm0,0" transform="translate(-405.051 -23.138)" fill="#002d67"/>
  <path id="Path_106" data-name="Path 106" d="M423.888,249.757l-1.11-.641a.6.6,0,1,0-.6,1.036l1.11.641a.6.6,0,1,0,.6-1.036Zm0,0" transform="translate(-405.05 -239.101)" fill="#002d67"/>
  <path id="Path_107" data-name="Path 107" d="M34.3,24.821l-1.11-.641a.6.6,0,0,0-.6,1.036l1.11.641a.6.6,0,0,0,.6-1.037Zm0,0" transform="translate(-31 -23.139)" fill="#002d67"/>
</svg>
